<svg xmlns="http://www.w3.org/2000/svg" xmlns:xlink="http://www.w3.org/1999/xlink"
     xmlns:sketch="http://www.bohemiancoding.com/sketch/ns" viewBox="0 0 90 112.5" version="1.1" x="0px" y="0px"><title>
  Shape</title>
  <desc>Created with Sketch.</desc>
  <g stroke="none" stroke-width="1" fill="none" fill-rule="evenodd" sketch:type="MSPage">
    <g sketch:type="MSArtboardGroup" transform="translate(-5.000000, -5.000000)" fill="#7FFF00FF">
      <path
        d="M63.2303987,50 L91.5812532,21.6491455 C95.7393785,17.4910202 96.1646413,11.112078 92.5262817,7.47371831 C88.887922,3.83535865 82.5089798,4.26062147 78.3508545,8.41874679 L50,36.7696013 L21.6491455,8.41874679 C17.4910202,4.26062147 11.112078,3.83535865 7.47371831,7.47371831 C3.83535865,11.112078 4.26062147,17.4910202 8.41874679,21.6491455 L36.7696013,50 L8.41874679,78.3508545 C4.26062147,82.5089798 3.83535865,88.887922 7.47371831,92.5262817 C11.112078,96.1646413 17.4910202,95.7393785 21.6491455,91.5812532 L50,63.2303987 L78.3508545,91.5812532 C82.5089798,95.7393785 88.887922,96.1646413 92.5262817,92.5262817 C96.1646413,88.887922 95.7393785,82.5089798 91.5812532,78.3508545 L63.2303987,50 Z"
        sketch:type="MSShapeGroup"/>
    </g>
  </g>
</svg>
